<svg xmlns="http://www.w3.org/2000/svg" xmlns:xlink="http://www.w3.org/1999/xlink" version="1.1" width="256" height="256" viewBox="0 0 256 256" xml:space="preserve">

<defs>
</defs>
<g style="stroke: none; stroke-width: 0; stroke-dasharray: none; stroke-linecap: butt; stroke-linejoin: miter; stroke-miterlimit: 10; fill: none; fill-rule: nonzero; opacity: 1;" transform="translate(1.4065934065934016 1.4065934065934016) scale(2.81 2.81)" >
	<path d="M 54.462 83.053 c 2.245 1.691 3.988 3.401 2.005 5.24 c -0.325 0.301 -0.525 0.687 -0.525 1.1 v 0.006 c 0 0.332 0.309 0.601 0.691 0.601 h 6.741 c 0.381 0 0.691 -0.269 0.691 -0.601 l 0 0 c 0 -0.293 -0.245 -0.54 -0.576 -0.592 c -6.575 -1.032 -5.711 -3.545 -1.987 -6.628 L 54.462 83.053 z" style="stroke: none; stroke-width: 1; stroke-dasharray: none; stroke-linecap: butt; stroke-linejoin: miter; stroke-miterlimit: 10; fill: rgb(34,34,34); fill-rule: nonzero; opacity: 1;" transform=" matrix(1 0 0 1 0 0) " stroke-linecap="round" />
	<ellipse cx="56.97" cy="74.53200000000001" rx="8.9" ry="8.882" style="stroke: none; stroke-width: 1; stroke-dasharray: none; stroke-linecap: butt; stroke-linejoin: miter; stroke-miterlimit: 10; fill: rgb(204,0,44); fill-rule: nonzero; opacity: 1;" transform=" matrix(1 0 0 1 0 0) "/>
	<ellipse cx="56.97" cy="74.53200000000001" rx="8.9" ry="8.882" style="stroke: none; stroke-width: 1; stroke-dasharray: none; stroke-linecap: butt; stroke-linejoin: miter; stroke-miterlimit: 10; fill: rgb(204,22,41); fill-rule: nonzero; opacity: 1;" transform=" matrix(1 0 0 1 0 0) "/>
	<path d="M 44.512 83.053 c -2.325 1.751 -4.111 3.522 -1.78 5.436 c 0.197 0.161 0.3 0.391 0.3 0.626 l 0 0 c 0 0.488 -0.455 0.884 -1.017 0.884 h -6.415 c -0.381 0 -0.691 -0.269 -0.691 -0.601 l 0 0 c 0 -0.293 0.245 -0.54 0.576 -0.592 c 6.575 -1.032 5.711 -3.545 1.987 -6.628 L 44.512 83.053 z" style="stroke: none; stroke-width: 1; stroke-dasharray: none; stroke-linecap: butt; stroke-linejoin: miter; stroke-miterlimit: 10; fill: rgb(34,34,34); fill-rule: nonzero; opacity: 1;" transform=" matrix(1 0 0 1 0 0) " stroke-linecap="round" />
	<ellipse cx="42" cy="74.53200000000001" rx="8.9" ry="8.882" style="stroke: none; stroke-width: 1; stroke-dasharray: none; stroke-linecap: butt; stroke-linejoin: miter; stroke-miterlimit: 10; fill: rgb(204,22,41); fill-rule: nonzero; opacity: 1;" transform=" matrix(1 0 0 1 0 0) "/>
	<path d="M 46.878 76.891 h 5.218 l -0.011 5.057 c -1.74 -1.196 -3.421 -1.209 -5.16 -0.016 L 46.878 76.891 z" style="stroke: none; stroke-width: 1; stroke-dasharray: none; stroke-linecap: butt; stroke-linejoin: miter; stroke-miterlimit: 10; fill: rgb(204,22,41); fill-rule: nonzero; opacity: 1;" transform=" matrix(1 0 0 1 0 0) " stroke-linecap="round" />
	<path d="M 65.647 72.889 l 0.923 1.894 c 0.665 1.366 -0.1 2.996 -1.588 3.37 c -10.33 2.6 -20.66 2.601 -30.99 0.003 c -1.493 -0.375 -2.257 -2.013 -1.583 -3.38 l 1.026 -2.081 L 65.647 72.889 z" style="stroke: none; stroke-width: 1; stroke-dasharray: none; stroke-linecap: butt; stroke-linejoin: miter; stroke-miterlimit: 10; fill: rgb(234,26,47); fill-rule: nonzero; opacity: 1;" transform=" matrix(1 0 0 1 0 0) " stroke-linecap="round" />
	<path d="M 49.487 77.553 c 6.629 0 12.605 -1.025 16.387 -5.585 c 0.026 0.539 0.012 1.086 -0.081 1.647 c -3.958 4.287 -9.793 5.09 -16.306 5.09 c -6.508 0 -12.338 -0.798 -16.296 -5.078 c -0.096 -0.516 -0.122 -1.071 -0.091 -1.659 C 36.882 76.521 42.864 77.553 49.487 77.553 z" style="stroke: none; stroke-width: 1; stroke-dasharray: none; stroke-linecap: butt; stroke-linejoin: miter; stroke-miterlimit: 10; fill: rgb(34,34,34); fill-rule: nonzero; opacity: 1;" transform=" matrix(1 0 0 1 0 0) " stroke-linecap="round" />
	<path d="M 25.604 58.642 c 0 12.394 10.693 18.618 23.883 18.618 S 73.37 71.036 73.37 58.642 S 62.677 32.377 49.487 32.377 S 25.604 46.248 25.604 58.642 z" style="stroke: none; stroke-width: 1; stroke-dasharray: none; stroke-linecap: butt; stroke-linejoin: miter; stroke-miterlimit: 10; fill: rgb(234,26,47); fill-rule: nonzero; opacity: 1;" transform=" matrix(1 0 0 1 0 0) " stroke-linecap="round" />
	<path d="M 71.711 68.396 l -5.54 -19.489 l 1.634 -7.554 c 5.39 8.492 9.249 17.048 10.142 25.729 L 71.711 68.396 z" style="stroke: none; stroke-width: 1; stroke-dasharray: none; stroke-linecap: butt; stroke-linejoin: miter; stroke-miterlimit: 10; fill: rgb(234,26,47); fill-rule: nonzero; opacity: 1;" transform=" matrix(1 0 0 1 0 0) " stroke-linecap="round" />
	<path d="M 72.136 71.629 l -1.22 -5.791 l 6.649 -1.401 l 1.22 5.791 c 0.387 1.836 -0.788 3.638 -2.624 4.025 h 0 C 74.325 74.639 72.523 73.465 72.136 71.629 z" style="stroke: none; stroke-width: 1; stroke-dasharray: none; stroke-linecap: butt; stroke-linejoin: miter; stroke-miterlimit: 10; fill: rgb(34,34,34); fill-rule: nonzero; opacity: 1;" transform=" matrix(1 0 0 1 0 0) " stroke-linecap="round" />
	<path d="M 72.971 70.514 l 1.599 -3.322 l -3.017 -1.453 l -1.599 3.322 c -0.401 0.833 -0.051 1.834 0.782 2.235 l 0 0 C 71.569 71.697 72.57 71.347 72.971 70.514 z" style="stroke: none; stroke-width: 1; stroke-dasharray: none; stroke-linecap: butt; stroke-linejoin: miter; stroke-miterlimit: 10; fill: rgb(34,34,34); fill-rule: nonzero; opacity: 1;" transform=" matrix(1 0 0 1 0 0) " stroke-linecap="round" />
	<path d="M 69.848 66.357 L 69.848 66.357 c -0.149 -0.708 0.304 -1.403 1.012 -1.552 l 6.369 -1.342 c 0.708 -0.149 1.403 0.304 1.552 1.012 l 0 0 c 0.149 0.708 -0.304 1.403 -1.012 1.552 L 71.4 67.368 C 70.692 67.517 69.997 67.064 69.848 66.357 z" style="stroke: none; stroke-width: 1; stroke-dasharray: none; stroke-linecap: butt; stroke-linejoin: miter; stroke-miterlimit: 10; fill: rgb(245,249,255); fill-rule: nonzero; opacity: 1;" transform=" matrix(1 0 0 1 0 0) " stroke-linecap="round" />
	<path d="M 15.623 27.688 c 4.098 8.562 8.824 15.27 14.24 19.997 l 7.197 -7.189 c -6.943 -3.451 -12.616 -8.966 -16.229 -16.48 L 15.623 27.688 z" style="stroke: none; stroke-width: 1; stroke-dasharray: none; stroke-linecap: butt; stroke-linejoin: miter; stroke-miterlimit: 10; fill: rgb(234,26,47); fill-rule: nonzero; opacity: 1;" transform=" matrix(1 0 0 1 0 0) " stroke-linecap="round" />
	<path d="M 13.375 24.291 l 2.823 5.272 l 6.053 -3.242 l -2.823 -5.272 c -0.895 -1.672 -2.976 -2.301 -4.647 -1.406 l 0 0 C 13.109 20.539 12.48 22.619 13.375 24.291 z" style="stroke: none; stroke-width: 1; stroke-dasharray: none; stroke-linecap: butt; stroke-linejoin: miter; stroke-miterlimit: 10; fill: rgb(34,34,34); fill-rule: nonzero; opacity: 1;" transform=" matrix(1 0 0 1 0 0) " stroke-linecap="round" />
	<path d="M 11.327 25.706 L 11.327 25.706 c 0.389 0.689 1.263 0.932 1.952 0.543 l 10.13 -5.719 L 22 18.035 l -10.13 5.719 C 11.181 24.143 10.938 25.017 11.327 25.706 z" style="stroke: none; stroke-width: 1; stroke-dasharray: none; stroke-linecap: butt; stroke-linejoin: miter; stroke-miterlimit: 10; fill: rgb(239,167,51); fill-rule: nonzero; opacity: 1;" transform=" matrix(1 0 0 1 0 0) " stroke-linecap="round" />
	<path d="M 31.203 21.585 c -0.308 0.196 -0.698 0.223 -1.036 0.05 c -0.159 -0.081 -0.322 -0.185 -0.5 -0.32 c -0.368 -0.268 -2.287 0.653 -3.009 1 c -0.32 0.154 -0.651 0.313 -0.955 0.446 l -0.027 0.011 c -1.716 0.654 -3.253 0.492 -4.462 -0.464 c -0.784 0.011 -1.533 -0.407 -1.923 -1.098 s -0.361 -1.548 0.053 -2.213 c -0.195 -1.53 0.458 -2.927 1.9 -4.055 l 0.023 -0.017 c 0.268 -0.189 0.557 -0.379 0.862 -0.579 l 0.02 -0.013 c 0.734 -0.481 2.451 -1.607 2.41 -2.075 c -0.022 -0.208 -0.027 -0.402 -0.014 -0.58 c 0.027 -0.378 0.251 -0.699 0.578 -0.861 C 27.792 14.044 29.818 17.633 31.203 21.585 z" style="stroke: none; stroke-width: 1; stroke-dasharray: none; stroke-linecap: butt; stroke-linejoin: miter; stroke-miterlimit: 10; fill: rgb(216,143,26); fill-rule: nonzero; opacity: 1;" transform=" matrix(1 0 0 1 0 0) " stroke-linecap="round" />
	<circle cx="27.273" cy="16.703" r="1.433" style="stroke: none; stroke-width: 1; stroke-dasharray: none; stroke-linecap: butt; stroke-linejoin: miter; stroke-miterlimit: 10; fill: rgb(192,127,21); fill-rule: nonzero; opacity: 1;" transform="  matrix(1 0 0 1 0 0) "/>
	<path d="M 31.203 21.585 c -0.308 0.196 -0.698 0.223 -1.036 0.05 c -0.159 -0.081 -0.322 -0.185 -0.5 -0.32 c -0.368 -0.268 -2.287 0.653 -3.009 1 c -0.32 0.154 -0.651 0.313 -0.955 0.446 l -0.027 0.011 c -1.716 0.654 -3.253 0.492 -4.462 -0.464 c -0.784 0.011 -1.533 -0.407 -1.923 -1.098 s -0.361 -1.548 0.053 -2.213 c -0.195 -1.53 0.458 -2.927 1.9 -4.055 l 0.023 -0.017 c 0.268 -0.189 0.557 -0.379 0.862 -0.579 l 0.02 -0.013 c 0.734 -0.481 2.451 -1.607 2.41 -2.075 c -0.022 -0.208 -0.027 -0.402 -0.014 -0.58 c 0.027 -0.378 0.251 -0.699 0.578 -0.861 C 26.241 14.919 28.267 18.509 31.203 21.585 z" style="stroke: none; stroke-width: 1; stroke-dasharray: none; stroke-linecap: butt; stroke-linejoin: miter; stroke-miterlimit: 10; fill: rgb(239,167,51); fill-rule: nonzero; opacity: 1;" transform=" matrix(1 0 0 1 0 0) " stroke-linecap="round" />
	<path d="M 18.01 22.685 l 0.537 3.648 l 3.313 -0.488 l -0.537 -3.648 c -0.135 -0.915 -0.985 -1.547 -1.9 -1.412 l 0 0 C 18.508 20.919 17.876 21.77 18.01 22.685 z" style="stroke: none; stroke-width: 1; stroke-dasharray: none; stroke-linecap: butt; stroke-linejoin: miter; stroke-miterlimit: 10; fill: rgb(34,34,34); fill-rule: nonzero; opacity: 1;" transform=" matrix(1 0 0 1 0 0) " stroke-linecap="round" />
	<path d="M 15.171 29.742 L 15.171 29.742 c 0.345 0.645 1.147 0.887 1.792 0.542 l 5.799 -3.105 c 0.645 -0.345 0.887 -1.147 0.542 -1.792 l 0 0 c -0.345 -0.645 -1.147 -0.887 -1.792 -0.542 l -5.799 3.105 C 15.068 28.295 14.826 29.098 15.171 29.742 z" style="stroke: none; stroke-width: 1; stroke-dasharray: none; stroke-linecap: butt; stroke-linejoin: miter; stroke-miterlimit: 10; fill: rgb(245,249,255); fill-rule: nonzero; opacity: 1;" transform=" matrix(1 0 0 1 0 0) " stroke-linecap="round" />
	<path d="M 34.152 23.838 C 37.396 -1.008 57.009 11.984 62.61 3.708 c 1.94 7.323 -8.517 4.749 -1.517 16.694 L 34.152 23.838 z" style="stroke: none; stroke-width: 1; stroke-dasharray: none; stroke-linecap: butt; stroke-linejoin: miter; stroke-miterlimit: 10; fill: rgb(234,26,47); fill-rule: nonzero; opacity: 1;" transform=" matrix(1 0 0 1 0 0) " stroke-linecap="round" />
	<ellipse cx="48.590999999999994" cy="30.631999999999998" rx="14.151" ry="15.542" style="stroke: none; stroke-width: 1; stroke-dasharray: none; stroke-linecap: butt; stroke-linejoin: miter; stroke-miterlimit: 10; fill: rgb(253,223,179); fill-rule: nonzero; opacity: 1;" transform=" matrix(0.992 -0.1265 0.1265 0.992 -3.4835 6.392) "/>
	<circle cx="57.426" cy="31.276" r="3.596" style="stroke: none; stroke-width: 1; stroke-dasharray: none; stroke-linecap: butt; stroke-linejoin: miter; stroke-miterlimit: 10; fill: rgb(247,172,139); fill-rule: nonzero; opacity: 1;" transform="  matrix(1 0 0 1 0 0) "/>
	<circle cx="40.355999999999995" cy="33.446" r="3.596" style="stroke: none; stroke-width: 1; stroke-dasharray: none; stroke-linecap: butt; stroke-linejoin: miter; stroke-miterlimit: 10; fill: rgb(247,172,139); fill-rule: nonzero; opacity: 1;" transform="  matrix(1 0 0 1 0 0) "/>
	<path d="M 28.629 51.158 c 0.09 -0.351 0.107 -0.717 0.03 -1.072 c -0.085 -0.392 -0.154 -0.789 -0.205 -1.192 c -0.619 -4.858 1.338 -9.571 4.993 -13.252 c -0.307 -1.081 -0.543 -2.203 -0.691 -3.363 c -1.334 -10.461 5.141 -16.05 13.865 -17.163 S 63.016 17.789 64.35 28.25 c 0.148 1.162 0.201 2.31 0.175 3.436 c 4.457 2.646 7.53 6.715 8.149 11.569 c 0.051 0.403 0.085 0.805 0.101 1.205 c 0.015 0.363 0.122 0.712 0.298 1.03 c 0.354 0.639 0.593 1.336 0.688 2.079 c 0.58 4.551 -2.325 5.716 -2.667 6.001 c -0.626 0.521 -0.898 1.328 -0.792 2.135 c 0.001 0.005 0.001 0.009 0.002 0.014 c 0.497 3.9 -1.741 5.997 -3.505 6.974 c -1.06 0.587 -1.846 1.558 -2.277 2.69 c -1.483 3.893 -5.49 6.982 -10.522 7.624 c -5.032 0.642 -9.686 -1.342 -12.099 -4.739 c -0.701 -0.987 -1.706 -1.73 -2.879 -2.032 c -1.953 -0.503 -4.646 -1.971 -5.143 -5.871 c -0.001 -0.005 -0.001 -0.009 -0.002 -0.014 c -0.101 -0.808 -0.566 -1.521 -1.303 -1.868 c -0.403 -0.19 -3.507 -0.588 -4.088 -5.139 C 28.391 52.6 28.447 51.866 28.629 51.158 z M 48.63 30.903 c 5.566 -3.68 14.533 4.161 13.018 -4.239 c -2.413 -13.383 -27.706 -10.158 -26.683 3.403 C 35.606 38.578 42.318 28.737 48.63 30.903 z" style="stroke: none; stroke-width: 1; stroke-dasharray: none; stroke-linecap: butt; stroke-linejoin: miter; stroke-miterlimit: 10; fill: rgb(245,249,255); fill-rule: nonzero; opacity: 1;" transform=" matrix(1 0 0 1 0 0) " stroke-linecap="round" />
	<path d="M 46.426 36.759 c 0.158 1.242 1.587 2.083 3.19 1.878 c 1.604 -0.205 2.775 -1.377 2.617 -2.619 s -1.748 -3.347 -3.352 -3.143 C 47.278 33.08 46.267 35.517 46.426 36.759 z" style="stroke: none; stroke-width: 1; stroke-dasharray: none; stroke-linecap: butt; stroke-linejoin: miter; stroke-miterlimit: 10; fill: rgb(34,34,34); fill-rule: nonzero; opacity: 1;" transform=" matrix(1 0 0 1 0 0) " stroke-linecap="round" />
	<path d="M 49.062 34.296 c -2.113 5.198 -7.061 5.721 -11.802 3.528 c -0.699 -0.324 -0.71 -1.319 -0.016 -1.654 l 11.36 -5.471 l 12.369 2.445 c 0.756 0.149 0.995 1.116 0.399 1.605 C 57.333 38.062 52.412 38.797 49.062 34.296 z" style="stroke: none; stroke-width: 1; stroke-dasharray: none; stroke-linecap: butt; stroke-linejoin: miter; stroke-miterlimit: 10; fill: rgb(220,221,234); fill-rule: nonzero; opacity: 1;" transform=" matrix(1 0 0 1 0 0) " stroke-linecap="round" />
	<path d="M 48.901 33.032 c -2.113 5.198 -7.061 5.721 -11.802 3.528 c -0.699 -0.324 -0.71 -1.319 -0.016 -1.654 l 11.44 -4.839 l 12.289 1.813 c 0.756 0.149 0.995 1.116 0.399 1.605 C 57.172 36.798 52.251 37.533 48.901 33.032 z" style="stroke: none; stroke-width: 1; stroke-dasharray: none; stroke-linecap: butt; stroke-linejoin: miter; stroke-miterlimit: 10; fill: rgb(237,237,255); fill-rule: nonzero; opacity: 1;" transform=" matrix(1 0 0 1 0 0) " stroke-linecap="round" />
	<path d="M 46.637 31.593 c 0.158 1.242 1.203 2.132 2.334 1.987 c 1.131 -0.144 1.919 -1.268 1.761 -2.51 c -0.158 -1.242 -1.365 -3.396 -2.495 -3.252 S 46.479 30.351 46.637 31.593 z" style="stroke: none; stroke-width: 1; stroke-dasharray: none; stroke-linecap: butt; stroke-linejoin: miter; stroke-miterlimit: 10; fill: rgb(247,172,139); fill-rule: nonzero; opacity: 1;" transform=" matrix(1 0 0 1 0 0) " stroke-linecap="round" />
	<circle cx="62.783" cy="3.243" r="3.243" style="stroke: none; stroke-width: 1; stroke-dasharray: none; stroke-linecap: butt; stroke-linejoin: miter; stroke-miterlimit: 10; fill: rgb(245,249,255); fill-rule: nonzero; opacity: 1;" transform="  matrix(1 0 0 1 0 0) "/>
	<path d="M 48.153 21.582 c -0.478 1.323 2.024 0.843 4.564 1.76 s 4.158 2.886 4.636 1.563 s -1.194 -3.14 -3.735 -4.058 C 51.078 19.929 48.631 20.258 48.153 21.582 z" style="stroke: none; stroke-width: 1; stroke-dasharray: none; stroke-linecap: butt; stroke-linejoin: miter; stroke-miterlimit: 10; fill: rgb(245,249,255); fill-rule: nonzero; opacity: 1;" transform=" matrix(1 0 0 1 0 0) " stroke-linecap="round" />
	<path d="M 46.752 21.76 c 0.795 1.161 -1.748 1.324 -3.977 2.85 c -2.229 1.526 -3.3 3.838 -4.095 2.677 c -0.795 -1.161 0.368 -3.339 2.597 -4.865 C 43.506 20.895 45.957 20.599 46.752 21.76 z" style="stroke: none; stroke-width: 1; stroke-dasharray: none; stroke-linecap: butt; stroke-linejoin: miter; stroke-miterlimit: 10; fill: rgb(245,249,255); fill-rule: nonzero; opacity: 1;" transform=" matrix(1 0 0 1 0 0) " stroke-linecap="round" />
	<path d="M 54.612 27.314 c 0.063 -0.145 0.094 -0.306 0.096 -0.469 c -0.006 -0.154 -0.033 -0.321 -0.087 -0.47 c -0.11 -0.299 -0.301 -0.561 -0.526 -0.769 c -0.455 -0.412 -1.027 -0.622 -1.594 -0.652 c -0.567 -0.027 -1.153 0.123 -1.646 0.479 c -0.243 0.181 -0.46 0.416 -0.604 0.697 c -0.07 0.14 -0.119 0.302 -0.143 0.453 c -0.019 0.16 -0.009 0.324 0.033 0.475 l 0.012 0.043 c 0.009 0.032 0.041 0.05 0.073 0.041 c 0.012 -0.003 0.022 -0.01 0.03 -0.019 c 0.066 -0.079 0.124 -0.162 0.193 -0.235 c 0.08 -0.063 0.149 -0.137 0.234 -0.191 c 0.166 -0.115 0.347 -0.208 0.539 -0.276 c 0.385 -0.134 0.802 -0.178 1.211 -0.151 c 0.409 0.017 0.819 0.103 1.187 0.279 c 0.183 0.088 0.352 0.201 0.502 0.336 c 0.078 0.064 0.137 0.146 0.208 0.218 c 0.058 0.081 0.105 0.171 0.16 0.258 c 0.017 0.028 0.054 0.036 0.082 0.018 c 0.01 -0.007 0.018 -0.016 0.023 -0.027 L 54.612 27.314 z" style="stroke: none; stroke-width: 1; stroke-dasharray: none; stroke-linecap: butt; stroke-linejoin: miter; stroke-miterlimit: 10; fill: rgb(34,34,34); fill-rule: nonzero; opacity: 1;" transform=" matrix(1 0 0 1 0 0) " stroke-linecap="round" />
	<path d="M 46.249 27.5 c 0.02 -0.156 0.004 -0.32 -0.039 -0.477 c -0.048 -0.146 -0.122 -0.299 -0.215 -0.427 c -0.19 -0.256 -0.446 -0.454 -0.72 -0.591 c -0.552 -0.268 -1.16 -0.31 -1.713 -0.179 c -0.552 0.132 -1.073 0.441 -1.446 0.921 c -0.183 0.242 -0.325 0.529 -0.385 0.839 c -0.028 0.154 -0.029 0.323 -0.011 0.475 c 0.027 0.159 0.082 0.314 0.164 0.447 l 0.024 0.038 c 0.017 0.028 0.054 0.036 0.082 0.019 c 0.011 -0.007 0.018 -0.016 0.023 -0.027 c 0.041 -0.094 0.074 -0.19 0.119 -0.279 c 0.059 -0.083 0.105 -0.173 0.172 -0.249 c 0.127 -0.157 0.275 -0.297 0.441 -0.416 c 0.333 -0.236 0.72 -0.396 1.12 -0.484 c 0.397 -0.098 0.815 -0.13 1.217 -0.064 c 0.201 0.033 0.394 0.095 0.576 0.182 c 0.093 0.04 0.172 0.102 0.261 0.151 c 0.079 0.062 0.149 0.135 0.226 0.203 c 0.025 0.022 0.062 0.019 0.084 -0.005 c 0.008 -0.009 0.013 -0.02 0.014 -0.032 L 46.249 27.5 z" style="stroke: none; stroke-width: 1; stroke-dasharray: none; stroke-linecap: butt; stroke-linejoin: miter; stroke-miterlimit: 10; fill: rgb(34,34,34); fill-rule: nonzero; opacity: 1;" transform=" matrix(1 0 0 1 0 0) " stroke-linecap="round" />
	<path d="M 49.206 79.753 h 1.395 c 0.76 0 1.378 -0.618 1.378 -1.378 v -0.589 c 0 -0.76 -0.618 -1.378 -1.378 -1.378 h -1.395 c -0.76 0 -1.378 0.618 -1.378 1.378 v 0.589 C 47.828 79.134 48.446 79.753 49.206 79.753 z M 50.602 77.067 c 0.396 0 0.718 0.322 0.718 0.718 v 0.589 c 0 0.396 -0.322 0.718 -0.718 0.718 h -1.395 c -0.396 0 -0.718 -0.322 -0.718 -0.718 v -0.589 c 0 -0.396 0.322 -0.718 0.718 -0.718 H 50.602 z" style="stroke: none; stroke-width: 1; stroke-dasharray: none; stroke-linecap: butt; stroke-linejoin: miter; stroke-miterlimit: 10; fill: rgb(239,167,51); fill-rule: nonzero; opacity: 1;" transform=" matrix(1 0 0 1 0 0) " stroke-linecap="round" />
	<path d="M 49.883 77.55 c 1.743 -0.011 3.439 -0.096 5.059 -0.304 v 1.19 c -1.62 0.185 -3.314 0.257 -5.059 0.266 V 77.55 z" style="stroke: none; stroke-width: 1; stroke-dasharray: none; stroke-linecap: butt; stroke-linejoin: miter; stroke-miterlimit: 10; fill: rgb(34,34,34); fill-rule: nonzero; opacity: 1;" transform=" matrix(1 0 0 1 0 0) " stroke-linecap="round" />
</g>
</svg>